<?xml version="1.0" standalone="no"?>
<!DOCTYPE svg PUBLIC "-//W3C//DTD SVG 20010904//EN"
 "http://www.w3.org/TR/2001/REC-SVG-20010904/DTD/svg10.dtd">
<svg version="1.0" xmlns="http://www.w3.org/2000/svg"
 width="3584.000000pt" height="1184.000000pt" viewBox="0 0 3584.000000 1184.000000"
 preserveAspectRatio="xMidYMid meet">

<g transform="translate(0.000000,1184.000000) scale(0.100000,-0.100000)"
fill="#000000" stroke="none">
<path d="M1130 10079 c0 -128 81 -330 180 -447 78 -93 158 -155 275 -211 198
-97 114 -93 1846 -91 1645 1 1627 2 1828 -56 192 -56 299 -110 466 -236 156
-118 259 -239 398 -466 l37 -62 405 0 405 0 0 23 c0 40 -78 242 -142 371 -177
352 -484 696 -795 889 -210 129 -420 220 -641 278 -237 61 -155 59 -2303 59
l-1959 0 0 -51z"/>
<path d="M30115 7832 l0 -1757 365 2 365 3 0 1755 0 1755 -365 0 -365 0 0
-1758z"/>
<path d="M10025 9550 c-215 -23 -381 -63 -544 -131 -252 -107 -448 -240 -607
-414 -204 -223 -342 -481 -414 -778 -55 -226 -59 -581 -9 -826 55 -270 179
-529 353 -736 63 -75 180 -193 225 -225 19 -14 60 -46 90 -72 31 -26 59 -48
63 -48 3 0 39 -19 80 -43 141 -83 295 -142 498 -190 162 -39 160 -39 415 -43
172 -2 270 1 345 12 106 15 269 57 370 96 84 32 263 123 354 180 93 59 228
175 224 194 -2 7 -109 120 -239 252 -206 210 -238 238 -255 229 -10 -6 -21
-13 -24 -16 -43 -52 -208 -155 -328 -206 -280 -118 -658 -99 -918 46 -186 103
-342 264 -420 434 -145 315 -159 666 -37 975 92 234 264 420 488 526 178 84
283 107 496 107 103 0 145 -5 235 -28 177 -44 264 -88 406 -204 l100 -83 22
24 c11 13 53 59 91 103 39 44 116 127 171 185 56 58 114 121 130 140 16 19 35
41 41 48 7 7 13 17 13 22 0 16 -136 133 -215 184 -228 149 -424 226 -682 267
-144 23 -395 32 -518 19z"/>
<path d="M16928 9514 c-7 -6 1 -3426 7 -3432 3 -3 169 -6 370 -6 l365 -2 0
111 c1 60 2 385 3 720 l2 610 32 3 c28 3 35 -2 57 -36 14 -22 69 -98 123 -169
54 -70 114 -150 133 -178 19 -27 67 -95 107 -150 86 -117 284 -385 295 -400 4
-5 31 -43 60 -84 52 -72 157 -214 265 -357 l54 -71 422 2 c232 2 428 3 435 4
7 0 -49 82 -125 182 -76 99 -151 199 -167 222 -16 23 -63 85 -105 137 -42 52
-107 136 -146 187 -38 51 -144 189 -235 308 -246 321 -270 355 -270 380 0 25
15 33 114 60 175 49 335 145 463 278 184 192 253 366 253 644 1 72 -4 162 -10
200 -11 69 -60 223 -88 278 -27 53 -108 168 -154 220 -50 55 -174 148 -253
189 -149 77 -346 132 -527 146 -129 10 -1471 14 -1480 4z m1937 -134 c3 -5 -1
-10 -9 -10 -8 0 -18 5 -21 10 -3 6 1 10 9 10 8 0 18 -4 21 -10z m-486 -475
c199 -65 307 -189 326 -373 20 -196 -104 -387 -290 -445 -102 -32 -187 -38
-463 -35 l-273 3 -2 433 c-2 238 -1 435 2 437 2 3 143 5 313 5 303 0 310 0
387 -25z m851 -989 c0 -3 -4 -8 -10 -11 -5 -3 -10 -1 -10 4 0 6 5 11 10 11 6
0 10 -2 10 -4z"/>
<path d="M25683 9422 c-10 -6 -13 -122 -15 -503 l-3 -494 -267 3 -268 3 0
-306 0 -305 268 -2 267 -3 5 -870 5 -869 358 -1 c247 -1 357 2 357 9 0 6 1
398 3 871 l2 860 269 5 268 5 -1 275 c0 151 -1 287 -1 301 l0 26 -242 -5
c-163 -3 -252 0 -271 7 l-28 11 2 492 2 493 -349 2 c-192 2 -355 -1 -361 -5z"/>
<path d="M1819 8553 c-7 -62 33 -244 74 -333 51 -110 161 -249 252 -317 118
-89 315 -162 442 -163 69 0 73 -4 73 -79 1 -338 95 -729 255 -1056 153 -312
338 -554 585 -767 298 -257 637 -422 1005 -490 141 -26 499 -36 643 -18 337
41 637 153 917 340 172 116 381 306 512 467 99 121 227 326 293 468 151 328
239 688 243 1007 l2 143 -928 0 -928 0 0 -394 c1 -217 2 -395 4 -397 1 -2 205
-4 452 -6 322 -3 450 -7 452 -15 5 -14 -45 -115 -101 -201 -83 -128 -257 -308
-379 -391 -72 -49 -282 -146 -377 -175 -363 -109 -810 -52 -1140 143 -156 93
-350 279 -454 435 -123 185 -226 440 -267 661 -42 222 -28 569 32 785 23 81
77 224 115 304 13 28 24 51 24 53 0 7 -1800 2 -1801 -4z"/>
<path d="M15950 8474 c-89 -9 -182 -29 -255 -55 -91 -33 -109 -44 -190 -114
-31 -27 -62 -50 -69 -50 -7 0 -12 29 -14 82 l-3 82 -352 3 c-194 2 -355 2
-359 0 -5 -2 -8 -531 -8 -1175 l0 -1172 361 0 360 0 3 700 c2 629 4 707 19
771 21 85 83 176 150 222 127 88 327 87 467 -2 30 -20 58 -36 61 -36 7 0 109
129 217 274 29 39 77 102 105 140 29 38 64 86 79 107 l27 39 -51 41 c-73 57
-149 93 -248 117 -83 20 -229 32 -300 26z m405 -404 c3 -5 1 -10 -4 -10 -6 0
-11 5 -11 10 0 6 2 10 4 10 3 0 8 -4 11 -10z"/>
<path d="M20910 8473 c-148 -8 -387 -68 -482 -121 -18 -10 -60 -34 -93 -52
-279 -152 -479 -428 -551 -760 -27 -119 -27 -447 0 -568 47 -218 145 -404 298
-561 47 -49 99 -98 115 -108 15 -10 48 -33 72 -51 99 -75 319 -162 486 -192
81 -15 140 -18 310 -16 116 2 219 6 231 9 11 3 52 13 90 22 231 58 400 150
575 314 l54 50 -155 152 c-85 84 -174 170 -197 192 l-42 39 -88 -66 c-154
-116 -263 -155 -458 -161 -137 -5 -236 13 -332 60 -79 39 -168 115 -212 179
-33 50 -75 161 -66 175 4 8 265 11 850 11 722 0 844 2 848 14 16 41 28 232 22
336 -8 142 -25 229 -63 342 -32 91 -110 246 -137 268 -8 7 -15 18 -15 24 0 26
-170 203 -241 252 -148 102 -312 172 -468 199 -83 14 -258 23 -351 18z m253
-578 c81 -21 174 -70 220 -116 47 -49 99 -156 105 -220 l5 -49 -512 0 -511 0
0 26 c0 40 69 161 126 223 60 64 172 127 250 140 84 15 255 12 317 -4z m462
-1114 c3 -5 2 -12 -3 -15 -5 -3 -9 1 -9 9 0 17 3 19 12 6z m-145 -655 c0 -2
-7 -7 -16 -10 -8 -3 -12 -2 -9 4 6 10 25 14 25 6z"/>
<path d="M12595 8455 c-343 -63 -649 -298 -815 -625 -163 -322 -152 -879 24
-1193 64 -116 185 -269 274 -348 90 -79 228 -156 362 -202 190 -65 484 -66
656 -4 100 37 240 122 293 178 12 13 26 19 35 16 13 -5 16 -25 16 -105 l0 -98
358 1 357 2 0 1171 0 1172 -355 1 -355 1 -5 -93 c-3 -66 -9 -93 -17 -92 -7 2
-48 30 -93 64 -81 60 -164 107 -230 127 -126 40 -365 53 -505 27z m451 -636
c181 -33 337 -185 390 -379 41 -153 14 -382 -62 -510 -134 -229 -435 -316
-674 -195 -78 39 -199 163 -238 245 -65 133 -79 323 -33 468 42 136 154 276
267 332 93 46 228 61 350 39z m284 -93 c0 -3 -4 -8 -10 -11 -5 -3 -10 -1 -10
4 0 6 5 11 10 11 6 0 10 -2 10 -4z m150 -1520 c0 -3 -4 -8 -10 -11 -5 -3 -10
-1 -10 4 0 6 5 11 10 11 6 0 10 -2 10 -4z m-13 -63 c-3 -10 -5 -4 -5 12 0 17
2 24 5 18 2 -7 2 -21 0 -30z"/>
<path d="M23710 8451 c-169 -45 -245 -85 -360 -188 -43 -39 -48 -33 -54 72 -3
42 -6 79 -8 80 -2 2 -163 5 -358 6 l-355 4 0 -1175 0 -1175 352 -2 c194 -1
355 1 357 6 3 4 6 303 7 664 2 713 6 773 56 876 36 74 100 136 181 174 65 31
72 32 197 32 116 0 135 -2 172 -23 100 -53 162 -136 193 -258 19 -75 21 -117
25 -769 2 -379 4 -692 4 -695 1 -4 679 -5 716 -1 10 1 16 1381 5 1381 -3 0 -3
39 -2 87 8 185 -49 387 -148 533 -61 90 -118 148 -214 220 -117 87 -177 116
-295 146 -82 20 -119 24 -251 23 -114 -1 -172 -5 -220 -18z"/>
<path d="M28070 8463 c-268 -40 -522 -173 -684 -357 -210 -237 -304 -472 -320
-801 -4 -81 10 -265 25 -345 43 -215 197 -490 349 -622 148 -130 204 -166 337
-217 183 -72 205 -76 433 -75 198 0 208 1 285 28 100 34 231 105 291 157 25
21 49 39 54 39 5 0 11 -44 12 -97 l3 -98 357 0 358 0 2 210 c2 116 1 643 -2
1172 l-5 961 -358 5 -358 5 7 -89 c9 -115 -1 -120 -93 -47 -86 68 -125 91
-211 122 -106 38 -221 56 -346 55 -61 -1 -122 -3 -136 -6z m391 -647 c90 -19
152 -49 227 -108 137 -109 191 -258 179 -493 -7 -129 -29 -208 -81 -289 -74
-115 -135 -166 -256 -212 -65 -24 -88 -28 -180 -28 -113 1 -181 18 -270 68
-100 56 -197 180 -238 305 -34 101 -38 294 -8 381 33 96 79 173 146 240 128
129 294 175 481 136z"/>
</g>
</svg>
