<?xml version="1.0" standalone="no"?>
<!DOCTYPE svg PUBLIC "-//W3C//DTD SVG 20010904//EN"
 "http://www.w3.org/TR/2001/REC-SVG-20010904/DTD/svg10.dtd">
<svg version="1.0" xmlns="http://www.w3.org/2000/svg"
 width="512.000000pt" height="512.000000pt" viewBox="0 0 512.000000 512.000000"
 preserveAspectRatio="xMidYMid meet">

<g transform="translate(0.000000,512.000000) scale(0.100000,-0.100000)"
fill="#000000" stroke="none">
<path d="M3245 4949 c-103 -14 -139 -26 -169 -55 -42 -43 -48 -85 -44 -352 3
-269 5 -278 65 -318 88 -57 631 -57 719 1 14 9 34 30 44 48 18 30 20 52 20
290 0 331 -5 344 -144 374 -76 17 -397 25 -491 12z m475 -229 c18 -18 20 -33
20 -147 0 -71 -4 -133 -8 -139 -8 -13 -46 -34 -61 -34 -6 0 -20 9 -31 20 -18
18 -20 33 -20 154 0 128 1 136 22 150 30 21 54 20 78 -4z"/>
<path d="M1970 3836 c0 -3 49 -94 109 -203 60 -110 123 -227 140 -261 l31 -62
-303 0 -303 0 -134 230 c-73 127 -139 230 -147 230 -47 0 -199 -106 -286 -200
-77 -83 -110 -144 -270 -500 -165 -368 -158 -350 -144 -355 33 -10 696 -51
1067 -65 329 -13 1331 -13 1660 0 371 14 1034 55 1067 65 14 5 21 -12 -144
355 -181 400 -206 444 -314 545 -104 98 -211 157 -354 197 -78 21 -98 22 -698
26 l-618 4 25 -49 c13 -26 77 -145 140 -263 l116 -215 -81 -3 c-45 -2 -87 2
-92 7 -5 5 -76 124 -157 263 l-147 253 -81 3 c-45 2 -82 1 -82 -2z"/>
<path d="M4778 2813 c56 -2 148 -2 205 0 56 1 10 3 -103 3 -113 0 -159 -2
-102 -3z"/>
<path d="M50 2791 c0 -5 17 -20 38 -33 35 -22 49 -23 224 -26 l188 -4 10 27
c5 14 10 31 10 36 0 5 -96 9 -235 9 -136 0 -235 -4 -235 -9z"/>
<path d="M4600 2791 c0 -5 5 -22 10 -36 l10 -27 188 4 c175 3 189 4 225 26 20
13 37 28 37 33 0 5 -99 9 -235 9 -139 0 -235 -4 -235 -9z"/>
<path d="M322 1925 c-46 -20 -98 -115 -62 -115 6 0 10 7 10 16 0 9 15 31 34
50 26 26 42 34 70 34 64 0 188 -30 273 -67 100 -42 133 -39 46 5 -126 64 -310
102 -371 77z"/>
<path d="M4689 1930 c-81 -10 -194 -47 -273 -88 -91 -47 -66 -54 32 -9 90 41
178 66 265 74 57 5 65 3 94 -21 17 -15 34 -40 38 -56 8 -35 25 -40 25 -7 0 35
-38 87 -75 103 -19 8 -38 13 -42 13 -4 -1 -33 -5 -64 -9z"/>
<path d="M1180 1773 c0 -86 65 -224 164 -350 89 -112 99 -115 326 -125 241
-10 1540 -10 1786 0 184 8 193 9 232 34 44 30 149 164 189 241 38 76 63 155
63 200 0 36 -2 39 -22 33 -13 -4 -67 -10 -120 -13 l-98 -6 0 -82 c0 -74 -2
-84 -25 -105 l-25 -23 0 106 0 107 -74 0 -74 0 -4 -90 c-3 -77 -6 -93 -25
-112 l-23 -22 0 50 c0 28 -3 79 -6 113 l-7 61 -67 0 -67 0 -7 -92 c-5 -65 -12
-98 -24 -111 -16 -19 -17 -18 -23 9 -4 16 -7 66 -8 112 l-1 82 -69 0 c-80 0
-81 0 -81 -116 0 -56 -4 -74 -18 -87 -10 -10 -22 -17 -25 -17 -4 0 -7 50 -7
110 l0 110 -75 0 -75 0 0 -93 c0 -87 -2 -95 -25 -117 l-25 -23 0 100 c0 56 -3
108 -6 117 -5 12 -21 16 -75 16 l-69 0 0 -34 c0 -18 7 -39 16 -46 25 -21 61
-92 68 -133 21 -119 -89 -247 -214 -247 -125 0 -235 128 -214 247 7 41 43 112
68 133 9 7 16 28 16 46 l0 34 -75 0 -75 0 0 -93 c0 -87 -2 -95 -25 -117 l-25
-23 0 116 0 117 -75 0 -75 0 0 -89 c0 -81 -2 -93 -25 -118 l-24 -28 -1 80 c0
44 -3 97 -6 118 l-7 37 -67 0 -67 0 -6 -91 c-4 -68 -10 -96 -24 -111 -18 -20
-18 -20 -25 23 -3 24 -7 74 -7 112 l-1 67 -69 0 -68 0 -7 -37 c-3 -21 -6 -63
-6 -94 0 -41 -5 -60 -18 -72 -10 -10 -22 -14 -25 -10 -4 3 -7 53 -7 110 l0
103 -75 0 -75 0 0 -88 c0 -81 -2 -90 -25 -112 l-25 -23 0 110 0 110 -97 6
c-54 3 -108 9 -120 13 -21 6 -23 3 -23 -33z"/>
<path d="M2490 1773 c0 -15 10 -18 70 -18 60 0 70 3 70 18 0 15 -10 17 -70 17
-60 0 -70 -2 -70 -17z"/>
<path d="M2469 1676 c-20 -14 -44 -40 -53 -59 -16 -35 -21 -102 -10 -132 8
-19 12 -13 88 128 40 73 44 87 29 87 -10 0 -35 -11 -54 -24z"/>
<path d="M2626 1613 c76 -141 80 -147 88 -128 11 30 6 97 -10 132 -18 37 -77
83 -107 83 -15 0 -11 -14 29 -87z"/>
<path d="M2528 1560 l-28 -50 60 0 60 0 -28 50 c-15 27 -29 50 -32 50 -3 0
-17 -23 -32 -50z"/>
<path d="M2457 1420 c36 -33 86 -45 138 -36 20 4 50 20 68 36 l32 29 -135 0
-135 0 32 -29z"/>
<path d="M141 762 c-1 -544 -1 -544 61 -582 30 -18 50 -20 234 -20 189 0 203
1 228 21 49 39 56 66 56 224 l0 145 1839 0 1840 0 3 -161 3 -161 37 -34 38
-34 202 0 c186 0 206 2 236 20 62 38 62 38 61 582 -1 332 -4 477 -11 443 -5
-27 -15 -88 -24 -135 -28 -157 -16 -140 -95 -140 l-69 0 0 48 c0 59 -31 128
-64 143 -19 9 -109 -1 -445 -48 -232 -33 -424 -63 -428 -67 -4 -3 1 -22 10
-41 l17 -35 -147 0 -146 0 -44 41 c-25 22 -70 53 -101 67 l-57 27 -785 3
c-892 3 -862 6 -971 -74 -32 -24 -59 -48 -59 -54 0 -6 -58 -10 -155 -10 l-155
0 17 36 c13 26 14 37 5 42 -6 4 -200 34 -430 66 -344 48 -423 56 -441 46 -31
-16 -61 -85 -61 -142 l0 -48 -69 0 c-79 0 -67 -17 -95 140 -9 47 -19 108 -24
135 -7 34 -10 -111 -11 -443z"/>
</g>
</svg>
